<svg width="500" height="500" viewBox="0 0 480 480" role="img" xmlns="http://www.w3.org/2000/svg">
  <title>BlackMonkey Mark</title>
  <desc>Minimal geometric monkey mark built from abacus elements</desc>

  <rect x="40" y="40" width="400" height="400" rx="32" fill="#111"/>

  <rect x="237" y="120" width="6" height="220" rx="3" fill="#e8a020"/>

  <ellipse cx="240" cy="162" rx="34" ry="16" fill="#f0b030"/>
  <ellipse cx="240" cy="220" rx="34" ry="16" fill="#e8a020"/>
  <ellipse cx="240" cy="278" rx="34" ry="16" fill="#d49018"/>

  <circle cx="240" cy="120" r="52" fill="#1a1a1a"/>
  <circle cx="240" cy="120" r="52" fill="none" stroke="#e8a020" stroke-width="2.8"/>

  <circle cx="188" cy="120" r="17" fill="#1a1a1a"/>
  <circle cx="188" cy="120" r="17" fill="none" stroke="#e8a020" stroke-width="2.2"/>
  <circle cx="292" cy="120" r="17" fill="#1a1a1a"/>
  <circle cx="292" cy="120" r="17" fill="none" stroke="#e8a020" stroke-width="2.2"/>
  <circle cx="188" cy="120" r="9" fill="#e8a020" opacity="0.22"/>
  <circle cx="292" cy="120" r="9" fill="#e8a020" opacity="0.22"/>

  <circle cx="225" cy="114" r="6.5" fill="#e8a020"/>
  <circle cx="255" cy="114" r="6.5" fill="#e8a020"/>
  <circle cx="227" cy="111" r="2" fill="#fff" opacity="0.8"/>
  <circle cx="257" cy="111" r="2" fill="#fff" opacity="0.8"/>

  <ellipse cx="240" cy="132" rx="20" ry="13" fill="#222"/>
  <ellipse cx="240" cy="132" rx="20" ry="13" fill="none" stroke="#e8a020" stroke-width="1.5" opacity="0.45"/>
  <ellipse cx="240" cy="128" rx="5" ry="3" fill="#e8a020" opacity="0.65"/>
  <path d="M230 136 Q240 144 250 136" fill="none" stroke="#e8a020" stroke-width="1.8" stroke-linecap="round" opacity="0.55"/>

  <path d="M240 340 Q178 378 155 342 Q132 306 168 292" fill="none" stroke="#e8a020" stroke-width="3.5" stroke-linecap="round" opacity="0.9"/>
  <circle cx="168" cy="292" r="6" fill="#e8a020"/>

  <g transform="translate(308,90)" opacity="0.38">
    <line x1="0" y1="-10" x2="0" y2="10" stroke="#e8a020" stroke-width="1.8" stroke-linecap="round"/>
    <line x1="-9" y1="-5" x2="9" y2="5" stroke="#e8a020" stroke-width="1.8" stroke-linecap="round"/>
    <line x1="-9" y1="5" x2="9" y2="-5" stroke="#e8a020" stroke-width="1.8" stroke-linecap="round"/>
  </g>

</svg>
